<svg xmlns="http://www.w3.org/2000/svg" width="30" height="30.001" viewBox="0 0 30 30.001">
  <g id="svgexport-6_15_" data-name="svgexport-6 (15)" transform="translate(-0.016 0.001)">
    <path id="Path_78772" data-name="Path 78772" d="M25.255,5.3a.994.994,0,0,1-.647-.235A11.716,11.716,0,0,0,22.5,3.656a1,1,0,0,1,.938-1.773,13.713,13.713,0,0,1,2.476,1.651A1,1,0,0,1,25.264,5.3Z" transform="translate(-1.368 -0.111)" fill="#fff"/>
    <path id="Path_78773" data-name="Path 78773" d="M15.006,30A15,15,0,1,1,18.851.5a1,1,0,0,1-.516,1.931A13,13,0,1,0,28.014,15a1,1,0,1,1,2,0A15,15,0,0,1,15.006,30Z" transform="translate(0 0)" fill="#fff"/>
    <path id="Path_78774" data-name="Path 78774" d="M30.407,13.245a1,1,0,0,1-.938-.76q-.15-.61-.356-1.191a1,1,0,1,1,1.876-.666c.159.45.3.938.413,1.379a1,1,0,0,1-.732,1.21A.938.938,0,0,1,30.407,13.245Z" transform="translate(-1.803 -0.615)" fill="#fff"/>
    <path id="Path_78775" data-name="Path 78775" d="M28.563,8.979a1,1,0,0,1-.854-.469,13.254,13.254,0,0,0-.938-1.332,1,1,0,1,1,1.557-1.257,15.065,15.065,0,0,1,1.088,1.538,1,1,0,0,1-.854,1.529Z" transform="translate(-1.648 -0.343)" fill="#fff"/>
    <path id="Path_78776" data-name="Path 78776" d="M15.27,26.259a10.938,10.938,0,0,1-5.955-1.753A1,1,0,0,1,10.4,22.828,9,9,0,0,0,22.847,10.4a9.169,9.169,0,0,0-2.71-2.7A9,9,0,0,0,7.7,20.129a1,1,0,1,1-1.679,1.087,11,11,0,0,1,15.2-15.2,11.175,11.175,0,0,1,3.3,3.29A10.995,10.995,0,0,1,15.27,26.259Z" transform="translate(-0.263 -0.264)" fill="#fff"/>
    <path id="Path_78777" data-name="Path 78777" d="M18.743,14.738h-2v-2a1,1,0,0,0-2,0v2H12.74a1,1,0,0,0,0,2h2v2.007a1,1,0,0,0,2,0V16.736h2.007a1,1,0,0,0,0-2Z" transform="translate(-0.736 -0.742)" fill="#fff"/>
  </g>
</svg>
