<svg xmlns="http://www.w3.org/2000/svg" width="20" height="20" viewBox="0 0 20 20">
  <g id="Icon_ionic-ios-add-circle-outline" data-name="Icon ionic-ios-add-circle-outline" transform="translate(-1)">
    <path id="Exclusion_4" data-name="Exclusion 4" d="M-290-3640a9.935,9.935,0,0,1-7.072-2.928A9.934,9.934,0,0,1-300-3650a9.936,9.936,0,0,1,2.929-7.072A9.935,9.935,0,0,1-290-3660a9.936,9.936,0,0,1,7.072,2.928A9.936,9.936,0,0,1-280-3650a9.935,9.935,0,0,1-2.929,7.072A9.936,9.936,0,0,1-290-3640Zm-4.133-10.731a.7.7,0,0,0-.73.731.707.707,0,0,0,.73.73h3.4v3.4a.706.706,0,0,0,.73.73.723.723,0,0,0,.731-.73v-3.4h3.4a.732.732,0,0,0,.731-.73.732.732,0,0,0-.731-.731h-3.4v-3.4a.732.732,0,0,0-.731-.731.732.732,0,0,0-.73.731v3.4Z" transform="translate(301 3660)" fill="#5c60b9"/>
  </g>
</svg>
