<svg id="svgexport-6_7_" data-name="svgexport-6 (7)" xmlns="http://www.w3.org/2000/svg" width="20" height="20" viewBox="0 0 20 20">
  <path id="Path_78750" data-name="Path 78750" d="M8.75,20H4.688A4.693,4.693,0,0,1,0,15.313V4.688A4.693,4.693,0,0,1,4.688,0H15.313A4.693,4.693,0,0,1,20,4.688V8.594a.781.781,0,0,1-1.562,0V4.688a3.129,3.129,0,0,0-3.125-3.125H4.688A3.129,3.129,0,0,0,1.562,4.688V15.313a3.129,3.129,0,0,0,3.125,3.125H8.75A.781.781,0,0,1,8.75,20ZM12.773,4.3a.781.781,0,0,0-.781-.781H8.008a.781.781,0,0,0,0,1.562h3.984A.781.781,0,0,0,12.773,4.3ZM20,14.727A5.273,5.273,0,1,0,14.727,20,5.279,5.279,0,0,0,20,14.727Zm-1.562,0a3.711,3.711,0,1,1-3.711-3.711A3.715,3.715,0,0,1,18.438,14.727Zm-2.3-.781h-.625V13.32a.781.781,0,0,0-1.562,0v.625H13.32a.781.781,0,0,0,0,1.563h.625v.625a.781.781,0,0,0,1.563,0v-.625h.625A.781.781,0,0,0,16.133,13.945Z" transform="translate(0 0)" fill="#5c60b9"/>
</svg>
