<svg xmlns="http://www.w3.org/2000/svg" width="24" height="24" viewBox="0 0 24 24">
  <g id="Group_4" data-name="Group 4" transform="translate(-20 -472)">
    <rect id="Rectangle_9" data-name="Rectangle 9" width="24" height="24" transform="translate(20 472)" fill="none"/>
    <g id="svgexport-6_9_" data-name="svgexport-6 (9)" transform="translate(22.501 472)">
      <path id="Path_78756" data-name="Path 78756" d="M230.4,0h-4.344a1.839,1.839,0,0,0-1.837,1.837V6.181a1.839,1.839,0,0,0,1.837,1.837H230.4a1.839,1.839,0,0,0,1.837-1.837V1.837A1.839,1.839,0,0,0,230.4,0Z" transform="translate(-213.232)" fill="#898989"/>
      <path id="Path_78757" data-name="Path 78757" d="M13.8,9.773a1.992,1.992,0,0,0-.935.231,2,2,0,0,0-2.657-.634A2,2,0,0,0,8,8.644V8.018h.167A1.839,1.839,0,0,0,10,6.181V1.837A1.839,1.839,0,0,0,8.164,0H3.82A1.839,1.839,0,0,0,1.983,1.837V6.181A1.839,1.839,0,0,0,3.82,8.018h.167v4.356a2.028,2.028,0,0,0-.365-.289,1.991,1.991,0,0,0-1.435-.266,1.76,1.76,0,0,0-1.325.647,1.772,1.772,0,0,0-.312,1.516l.924,3.955a11.616,11.616,0,0,0,3.21,5.872A.7.7,0,0,0,5.169,24h7.908a.7.7,0,0,0,.588-.317,12.991,12.991,0,0,0,2.141-7.154V11.778h0a2.007,2.007,0,0,0-2-2ZM5.465,22.594a10.107,10.107,0,0,1-2.6-4.9c0-.017-.006-.035-.01-.051l-.93-3.979a.377.377,0,0,1,.044-.322.412.412,0,0,1,.3-.127c.068-.006.1-.014.16-.018a.768.768,0,0,1,.459.085.6.6,0,0,1,.267.372l.8,3.432a.7.7,0,0,0,.6.538l.056.007a.7.7,0,0,0,.79-.7V5.756a.6.6,0,0,1,1.2,0v6.593a.7.7,0,0,0,1.406,0V10.557a.6.6,0,1,1,1.2,0v1.872a.7.7,0,1,0,1.406,0V11.115a.6.6,0,1,1,1.2,0V12.92a.7.7,0,0,0,1.406,0V11.778a.6.6,0,1,1,1.2,0v4.751a11.585,11.585,0,0,1-1.709,6.065Z" transform="translate(0 0)" fill="#898989"/>
    </g>
  </g>
</svg>
