<svg xmlns="http://www.w3.org/2000/svg" width="24" height="24" viewBox="0 0 24 24">
  <g id="svgexport-6_2_" data-name="svgexport-6 (2)" transform="translate(0)">
    <path id="Exclusion_1" data-name="Exclusion 1" d="M.75,18.75A.748.748,0,0,1,0,18V3A3,3,0,0,1,3,0H16.5a3,3,0,0,1,3,3v9a3,3,0,0,1-3,3H5.522L1.23,18.576A.751.751,0,0,1,.75,18.75ZM5.25,7.5a.75.75,0,0,0,0,1.5h6a.75.75,0,0,0,0-1.5Zm0-3a.75.75,0,0,0,0,1.5h9a.75.75,0,1,0,0-1.5Z" transform="translate(0)" fill="#444"/>
    <g id="Group_43535" data-name="Group 43535" transform="translate(6 6)">
      <g id="Group_43534" data-name="Group 43534">
        <path id="Path_78741" data-name="Path 78741" d="M143,128a.75.75,0,1,0,0,1.5,1.5,1.5,0,0,1,1.5,1.5v12.688l-2.532-2.025a.756.756,0,0,0-.468-.163H131a1.5,1.5,0,0,1-1.5-1.5v-.75a.75.75,0,0,0-1.5,0V140a3,3,0,0,0,3,3h10.236l3.545,2.836A.751.751,0,0,0,146,145.25V131A3,3,0,0,0,143,128Z" transform="translate(-128 -128)" fill="#444"/>
      </g>
    </g>
  </g>
</svg>
