<svg id="svgexport-6_2_" data-name="svgexport-6 (2)" xmlns="http://www.w3.org/2000/svg" width="24" height="24" viewBox="0 0 24 24">
  <g id="Group_43878" data-name="Group 43878">
    <g id="Group_43877" data-name="Group 43877">
      <path id="Path_78877" data-name="Path 78877" d="M12,0a12,12,0,0,0,0,24,2,2,0,0,0,2-2,1.955,1.955,0,0,0-.52-1.34,2,2,0,0,1,1.5-3.327h2.353A6.669,6.669,0,0,0,24,10.667C24,4.773,18.627,0,12,0ZM4.667,12a2,2,0,1,1,2-2A2,2,0,0,1,4.667,12Zm4-5.333a2,2,0,1,1,2-2A2,2,0,0,1,8.667,6.667Zm6.667,0a2,2,0,1,1,2-2A2,2,0,0,1,15.333,6.667Zm4,5.333a2,2,0,1,1,2-2A2,2,0,0,1,19.333,12Z" fill="#5c60b9"/>
    </g>
  </g>
</svg>
