<svg xmlns="http://www.w3.org/2000/svg" width="19.19" height="20" viewBox="0 0 19.19 20">
  <g id="svgexport-6_3_" data-name="svgexport-6 (3)" transform="translate(-3.295 -2)">
    <g id="Group_43880" data-name="Group 43880" transform="translate(3.295 2)">
      <g id="Group_43879" data-name="Group 43879" transform="translate(0)">
        <path id="Path_78878" data-name="Path 78878" d="M23.668,3.053a2.438,2.438,0,0,0-3.391-.621L17.428,4.4l-.216-.313a.9.9,0,0,0-1.253-.229h0a.9.9,0,0,0-.229,1.253l.064.092L8.11,10.51a2.642,2.642,0,0,0-1.115,2.577l-.85.587a1.164,1.164,0,0,0,1.323,1.915L8.318,15a2.631,2.631,0,0,0,2.8-.13l7.684-5.307.126.182a.9.9,0,1,0,1.482-1.024L20.2,8.412l2.849-1.967a2.438,2.438,0,0,0,.621-3.391ZM14.063,12.1,13.008,7.864,16.134,5.7l2.324,3.365Z" transform="translate(-4.91 -2)" fill="#444"/>
        <path id="Path_78879" data-name="Path 78879" d="M4.721,50.068A7.979,7.979,0,0,0,3.3,53a1.876,1.876,0,1,0,3.753,0,7.982,7.982,0,0,0-1.424-2.936A.544.544,0,0,0,4.721,50.068Z" transform="translate(-3.295 -34.881)" fill="#444"/>
      </g>
    </g>
  </g>
</svg>
