<svg xmlns="http://www.w3.org/2000/svg" width="64" height="47.605" viewBox="0 0 64 47.605">
  <g id="svgexport-6_17_" data-name="svgexport-6 (17)" transform="translate(0 -65.58)">
    <g id="Group_43664" data-name="Group 43664" transform="translate(0 65.58)">
      <circle id="Ellipse_1256" data-name="Ellipse 1256" cx="3.049" cy="3.049" r="3.049" transform="translate(45.184 1.871)" fill="#f9bd5f"/>
      <path id="Path_78788" data-name="Path 78788" d="M363.975,83.6a3.051,3.051,0,0,1,1.8-2.781,3.05,3.05,0,1,0,0,5.563A3.051,3.051,0,0,1,363.975,83.6Z" transform="translate(-316.291 -78.681)" fill="#f4ac4e"/>
      <path id="Path_78789" data-name="Path 78789" d="M328.728,134.736l-3.53-13.524-8.668,13.428,4.539,8.56Z" transform="translate(-276.964 -114.257)" fill="#f9bd5f"/>
      <path id="Path_78790" data-name="Path 78790" d="M110.293,134.635l-8.665-13.424-3.536,13.507,7.6,8.481Z" transform="translate(-85.83 -114.257)" fill="#f9bd5f"/>
      <path id="Path_78791" data-name="Path 78791" d="M57.261,104.947l-12.2,22.712L28.8,109.515l6.1,29.992,4.037,1.309H75.782l3.841-1.309,6.1-29.992L69.3,127.659Z" transform="translate(-25.199 -100.026)" fill="#ffe177"/>
      <g id="Group_43661" data-name="Group 43661" transform="translate(3.6 4.921)">
        <g id="Group_43660" data-name="Group 43660">
          <g id="Group_43657" data-name="Group 43657" transform="translate(42.87 4.568)">
            <path id="Path_78792" data-name="Path 78792" d="M375.13,157.441l9.6-10.605,1.087-5.346L371.76,157.021A2.074,2.074,0,0,0,375.13,157.441Z" transform="translate(-371.76 -141.49)" fill="#ffd15b"/>
          </g>
          <g id="Group_43658" data-name="Group 43658" transform="translate(0 4.568)">
            <path id="Path_78793" data-name="Path 78793" d="M33.649,146.9,28.8,141.49l6.1,29.993,4.037,1.309h3.75l-4.037-1.309Z" transform="translate(-28.799 -141.49)" fill="#ffd15b"/>
          </g>
          <g id="Group_43659" data-name="Group 43659" transform="translate(17.669)">
            <path id="Path_78794" data-name="Path 78794" d="M173.893,125.055l8.912-16.595-1.863-3.513-10.793,20.1.372.415A2.074,2.074,0,0,0,173.893,125.055Z" transform="translate(-170.15 -104.947)" fill="#ffd15b"/>
          </g>
        </g>
      </g>
      <path id="Path_78795" data-name="Path 78795" d="M227.968,228.36l-3.042,6.083a.916.916,0,0,0,0,.82l3.042,6.083a.916.916,0,0,0,1.639,0l3.042-6.083a.916.916,0,0,0,0-.82l-3.042-6.083A.916.916,0,0,0,227.968,228.36Z" transform="translate(-196.726 -207.57)" fill="#ff8086"/>
      <path id="Path_78796" data-name="Path 78796" d="M227.426,235.264a.916.916,0,0,1,0-.82l2.611-5.222-.43-.861a.916.916,0,0,0-1.639,0l-3.041,6.083a.916.916,0,0,0,0,.82l3.041,6.083a.916.916,0,0,0,1.639,0l.43-.861Z" transform="translate(-196.725 -207.57)" fill="#e5646e"/>
      <path id="Path_78797" data-name="Path 78797" d="M145.836,320.442H143.52a.875.875,0,0,1-.875-.875v-2.316a.875.875,0,0,1,.875-.875h2.316a.875.875,0,0,1,.875.875v2.316A.875.875,0,0,1,145.836,320.442Z" transform="translate(-124.814 -285.027)" fill="#8ac9fe"/>
      <path id="Path_78798" data-name="Path 78798" d="M341,320.442h-2.316a.875.875,0,0,1-.875-.875v-2.316a.875.875,0,0,1,.875-.875H341a.875.875,0,0,1,.875.875v2.316A.875.875,0,0,1,341,320.442Z" transform="translate(-295.584 -285.027)" fill="#8ac9fe"/>
      <path id="Path_78799" data-name="Path 78799" d="M354.061,381.44l0-.009h-.005Z" transform="translate(-309.802 -341.95)" fill="#606060"/>
      <circle id="Ellipse_1257" data-name="Ellipse 1257" cx="3.049" cy="3.049" r="3.049" transform="translate(0 4.895)" fill="#f9bd5f"/>
      <path id="Path_78800" data-name="Path 78800" d="M2.5,107.791a3.051,3.051,0,0,1,1.8-2.781,3.049,3.049,0,1,0,0,5.563A3.051,3.051,0,0,1,2.5,107.791Z" transform="translate(0 -99.847)" fill="#f4ac4e"/>
      <circle id="Ellipse_1258" data-name="Ellipse 1258" cx="3.049" cy="3.049" r="3.049" transform="translate(57.901 4.895)" fill="#f9bd5f"/>
      <path id="Path_78801" data-name="Path 78801" d="M465.709,107.791a3.051,3.051,0,0,1,1.8-2.782,3.05,3.05,0,1,0,0,5.563A3.052,3.052,0,0,1,465.709,107.791Z" transform="translate(-405.308 -99.847)" fill="#f4ac4e"/>
      <circle id="Ellipse_1259" data-name="Ellipse 1259" cx="3.049" cy="3.049" r="3.049" transform="translate(29.012)" fill="#f9bd5f"/>
      <path id="Path_78802" data-name="Path 78802" d="M234.6,68.63a3.051,3.051,0,0,1,1.8-2.782,3.049,3.049,0,1,0,0,5.563A3.051,3.051,0,0,1,234.6,68.63Z" transform="translate(-203.084 -65.58)" fill="#f4ac4e"/>
      <circle id="Ellipse_1260" data-name="Ellipse 1260" cx="3.049" cy="3.049" r="3.049" transform="translate(12.275 1.846)" fill="#f9bd5f"/>
      <path id="Path_78803" data-name="Path 78803" d="M100.7,83.4a3.051,3.051,0,0,1,1.8-2.782,3.05,3.05,0,1,0,0,5.564A3.052,3.052,0,0,1,100.7,83.4Z" transform="translate(-85.928 -78.501)" fill="#f4ac4e"/>
      <path id="Path_78804" data-name="Path 78804" d="M122.318,381.359v7.216a.916.916,0,0,1-.916.916H78.509a.916.916,0,0,1-.916-.916v-7.216Z" transform="translate(-67.894 -341.887)" fill="#f9bd5f"/>
      <path id="Path_78805" data-name="Path 78805" d="M81.343,388.574v-7.216h-3.75v7.216a.916.916,0,0,0,.916.916h3.75A.916.916,0,0,1,81.343,388.574Z" transform="translate(-67.894 -341.886)" fill="#f4ac4e"/>
      <g id="Group_43663" data-name="Group 43663" transform="translate(9.699 42.562)">
        <g id="Group_43662" data-name="Group 43662">
          <path id="Path_78806" data-name="Path 78806" d="M77.593,406.072h44.725v1.963H77.593Z" transform="translate(-77.593 -406.072)" fill="#ffe177"/>
        </g>
      </g>
      <path id="Path_78807" data-name="Path 78807" d="M81.343,408v-1.963h-3.75V408l44.725.008h0Z" transform="translate(-67.894 -363.483)" fill="#ffd15b"/>
    </g>
  </g>
</svg>
