<svg id="Group_43867" data-name="Group 43867" xmlns="http://www.w3.org/2000/svg" width="23.999" height="24" viewBox="0 0 23.999 24">
  <g id="Group_43866" data-name="Group 43866">
    <path id="Path_78876" data-name="Path 78876" d="M12.012,0a12,12,0,1,0,12,12A12.013,12.013,0,0,0,12.012,0ZM8.532,5.629A2.894,2.894,0,1,1,5.637,8.524,2.9,2.9,0,0,1,8.532,5.629Zm-.88,11.792A.75.75,0,0,1,6.59,16.36l9.781-9.781A.751.751,0,1,1,17.432,7.64Zm7.824.94a2.894,2.894,0,1,1,2.894-2.895A2.9,2.9,0,0,1,15.476,18.361Z" transform="translate(-0.012)" fill="#5c60b9"/>
  </g>
</svg>
