<svg xmlns="http://www.w3.org/2000/svg" width="20" height="20" viewBox="0 0 20 20">
  <g id="Group_43744" data-name="Group 43744" transform="translate(157 -6579)">
    <rect id="Rectangle_8423" data-name="Rectangle 8423" width="20" height="20" transform="translate(-157 6579)" fill="none"/>
    <g id="svgexport-10_9_" data-name="svgexport-10 (9)" transform="translate(-182.57 6579)">
      <g id="Group_43743" data-name="Group 43743" transform="translate(26.57)">
        <g id="Group_43742" data-name="Group 43742" transform="translate(0)">
          <g id="Group_43741" data-name="Group 43741">
            <path id="Path_78842" data-name="Path 78842" d="M116.068,200.781a.781.781,0,0,0-.781-.781H107.24a.781.781,0,0,0,0,1.563h8.047A.781.781,0,0,0,116.068,200.781Z" transform="translate(-103.31 -192.188)" fill="#5c60b9"/>
            <path id="Path_78843" data-name="Path 78843" d="M107.24,280a.781.781,0,0,0,0,1.563h4.887a.781.781,0,0,0,0-1.562Z" transform="translate(-103.318 -269.063)" fill="#5c60b9"/>
            <path id="Path_78844" data-name="Path 78844" d="M32.335,18.437H29.71a1.568,1.568,0,0,1-1.57-1.562V3.125a1.568,1.568,0,0,1,1.57-1.562h9.651a1.568,1.568,0,0,1,1.57,1.562v4.8a.785.785,0,0,0,1.57,0v-4.8A3.136,3.136,0,0,0,39.361,0H29.71a3.136,3.136,0,0,0-3.14,3.125v13.75A3.136,3.136,0,0,0,29.71,20h2.625a.781.781,0,1,0,0-1.562Z" transform="translate(-26.57)" fill="#5c60b9"/>
            <path id="Path_78845" data-name="Path 78845" d="M252.224,272.71a2.346,2.346,0,0,0-3.314,0l-4.289,4.28a.781.781,0,0,0-.2.326l-.934,3.075a.781.781,0,0,0,.956.98l3.153-.873a.781.781,0,0,0,.343-.2l4.28-4.272A2.346,2.346,0,0,0,252.224,272.71Zm-5.239,6.336-1.586.439.464-1.528,2.894-2.888,1.105,1.105Zm4.134-4.126-.151.151-1.1-1.1.151-.151a.781.781,0,0,1,1.105,1.1Z" transform="translate(-234.909 -261.398)" fill="#5c60b9"/>
            <path id="Path_78846" data-name="Path 78846" d="M115.287,120H107.24a.781.781,0,0,0,0,1.563h8.047a.781.781,0,0,0,0-1.562Z" transform="translate(-103.31 -115.313)" fill="#5c60b9"/>
          </g>
        </g>
      </g>
    </g>
  </g>
</svg>
