<svg id="svgexport-10_8_" data-name="svgexport-10 (8)" xmlns="http://www.w3.org/2000/svg" width="24" height="24" viewBox="0 0 24 24">
  <g id="Group_43714" data-name="Group 43714" transform="translate(4.174 9.391)">
    <g id="Group_43713" data-name="Group 43713">
      <path id="Path_78829" data-name="Path 78829" d="M87.942,192H85.855a.522.522,0,0,0-.522.522V196.7a.522.522,0,1,0,1.044,0v-3.652h1.565a.522.522,0,1,0,0-1.043Z" transform="translate(-85.333 -192)" fill="#5c60b9"/>
    </g>
  </g>
  <g id="Group_43716" data-name="Group 43716" transform="translate(4.174 11.478)">
    <g id="Group_43715" data-name="Group 43715">
      <path id="Path_78830" data-name="Path 78830" d="M86.9,234.667H85.855a.522.522,0,1,0,0,1.043H86.9a.522.522,0,1,0,0-1.043Z" transform="translate(-85.333 -234.667)" fill="#5c60b9"/>
    </g>
  </g>
  <g id="Group_43718" data-name="Group 43718">
    <g id="Group_43717" data-name="Group 43717">
      <path id="Path_78831" data-name="Path 78831" d="M12,0A12,12,0,1,0,24,12,12.014,12.014,0,0,0,12,0Zm0,22.957A10.957,10.957,0,1,1,22.957,12,10.969,10.969,0,0,1,12,22.957Z" fill="#5c60b9"/>
    </g>
  </g>
  <g id="Group_43720" data-name="Group 43720" transform="translate(4.968 3.13)">
    <g id="Group_43719" data-name="Group 43719">
      <path id="Path_78832" data-name="Path 78832" d="M115.51,67.326a8.857,8.857,0,0,0-13.834,0,.521.521,0,1,0,.813.653,7.814,7.814,0,0,1,12.208,0,.522.522,0,0,0,.814-.653Z" transform="translate(-101.56 -64)" fill="#5c60b9"/>
    </g>
  </g>
  <g id="Group_43722" data-name="Group 43722" transform="translate(5.426 17.217)">
    <g id="Group_43721" data-name="Group 43721">
      <path id="Path_78833" data-name="Path 78833" d="M123.926,352.138a.522.522,0,0,0-.737.02,7.8,7.8,0,0,1-11.348,0,.521.521,0,1,0-.756.718,8.846,8.846,0,0,0,12.861,0A.521.521,0,0,0,123.926,352.138Z" transform="translate(-110.941 -351.994)" fill="#5c60b9"/>
    </g>
  </g>
  <g id="Group_43724" data-name="Group 43724" transform="translate(8.348 9.391)">
    <g id="Group_43723" data-name="Group 43723">
      <path id="Path_78834" data-name="Path 78834" d="M172.434,195.117a1.565,1.565,0,0,0-.2-3.117h-1.043a.522.522,0,0,0-.522.522V196.7a.522.522,0,0,0,1.044,0v-.827l1.2,1.2a.524.524,0,0,0,.369.152.517.517,0,0,0,.368-.153.522.522,0,0,0,0-.738Zm-.724-1.03v-1.043h.522a.522.522,0,1,1,0,1.044h-.522Z" transform="translate(-170.666 -192)" fill="#5c60b9"/>
    </g>
  </g>
  <g id="Group_43726" data-name="Group 43726" transform="translate(12.522 9.391)">
    <g id="Group_43725" data-name="Group 43725">
      <path id="Path_78835" data-name="Path 78835" d="M258.608,196.174h-1.565v-3.13h1.565a.522.522,0,1,0,0-1.043h-2.087a.522.522,0,0,0-.522.522V196.7a.522.522,0,0,0,.522.522h2.087a.522.522,0,0,0,0-1.044Z" transform="translate(-255.999 -192)" fill="#5c60b9"/>
    </g>
  </g>
  <g id="Group_43728" data-name="Group 43728" transform="translate(12.522 11.478)">
    <g id="Group_43727" data-name="Group 43727">
      <path id="Path_78836" data-name="Path 78836" d="M257.565,234.667h-1.043a.522.522,0,1,0,0,1.043h1.043a.522.522,0,1,0,0-1.043Z" transform="translate(-256 -234.667)" fill="#5c60b9"/>
    </g>
  </g>
  <g id="Group_43730" data-name="Group 43730" transform="translate(16.696 9.391)">
    <g id="Group_43729" data-name="Group 43729">
      <path id="Path_78837" data-name="Path 78837" d="M343.942,196.174h-1.565v-3.13h1.565a.522.522,0,1,0,0-1.043h-2.087a.522.522,0,0,0-.522.522V196.7a.522.522,0,0,0,.522.522h2.087a.522.522,0,1,0,0-1.044Z" transform="translate(-341.333 -192)" fill="#5c60b9"/>
    </g>
  </g>
  <g id="Group_43732" data-name="Group 43732" transform="translate(16.696 11.478)">
    <g id="Group_43731" data-name="Group 43731">
      <path id="Path_78838" data-name="Path 78838" d="M342.9,234.667h-1.043a.522.522,0,1,0,0,1.043H342.9a.522.522,0,1,0,0-1.043Z" transform="translate(-341.333 -234.667)" fill="#5c60b9"/>
    </g>
  </g>
</svg>
