<svg xmlns="http://www.w3.org/2000/svg" width="30" height="30" viewBox="0 0 30 30">
  <g id="Group_43602" data-name="Group 43602" transform="translate(-1856 -3426)">
    <rect id="Rectangle_8208" data-name="Rectangle 8208" width="30" height="30" transform="translate(1856 3426)" fill="none"/>
    <g id="svgexport-6_11_" data-name="svgexport-6 (11)" transform="translate(1851.235 3426)">
      <g id="Group_43601" data-name="Group 43601" transform="translate(5.765 0)">
        <g id="Group_43600" data-name="Group 43600" transform="translate(0 0)">
          <g id="Group_43596" data-name="Group 43596" transform="translate(1.585 16.658)">
            <path id="Path_78760" data-name="Path 78760" d="M32.411,162.9H22.669a1.408,1.408,0,0,0-1.4,1.4v10.535a1.408,1.408,0,0,0,1.4,1.4h9.906c.33,0,.33-.355.33-.355v-12.51A.473.473,0,0,0,32.411,162.9Z" transform="translate(-21.265 -162.904)" fill="#5c60b9"/>
            <path id="Path_78761" data-name="Path 78761" d="M168.472,162.9H158.74c-.593,0-.5.617-.5.617V175.9a.335.335,0,0,0,.352.343h9.885a1.408,1.408,0,0,0,1.4-1.4V164.308A1.407,1.407,0,0,0,168.472,162.9Z" transform="translate(-144.225 -162.904)" fill="#5c60b9"/>
          </g>
          <g id="Group_43597" data-name="Group 43597" transform="translate(0 7.894)">
            <path id="Path_78762" data-name="Path 78762" d="M18.99,77.671a.464.464,0,0,0-.47-.476H7.169a1.408,1.408,0,0,0-1.4,1.4V82.98a1.408,1.408,0,0,0,1.4,1.4h11.39a.387.387,0,0,0,.432-.374V77.671Z" transform="translate(-5.765 -77.195)" fill="#5c60b9"/>
            <path id="Path_78763" data-name="Path 78763" d="M170.1,77.195H158.713a.411.411,0,0,0-.434.413v6.409s0,.366.527.366H170.1a1.408,1.408,0,0,0,1.4-1.4V78.6A1.408,1.408,0,0,0,170.1,77.195Z" transform="translate(-142.683 -77.195)" fill="#5c60b9"/>
          </g>
          <g id="Group_43598" data-name="Group 43598" transform="translate(3.441)">
            <path id="Path_78764" data-name="Path 78764" d="M44.423,6.855A9.173,9.173,0,0,1,42.68,6.7a4.126,4.126,0,0,1-2.745-1.519,3.162,3.162,0,0,1-.441-2.517A3.06,3.06,0,0,1,42.748,0a6.4,6.4,0,0,1,1.217.128,11.267,11.267,0,0,1,3.784,1.7C49.893,3.26,50,4.153,49.892,4.7c-.157.8-.908,1.377-2.295,1.755A12.637,12.637,0,0,1,44.423,6.855ZM42.748,2.25c-.682,0-.917.191-1.045.85-.105.539.028.727.071.789a2.217,2.217,0,0,0,1.338.607,7.041,7.041,0,0,0,1.312.11,10.128,10.128,0,0,0,2.661-.342c.046-.013.117-.067.041-.113a9.472,9.472,0,0,0-3.591-1.815A4.184,4.184,0,0,0,42.748,2.25Z" transform="translate(-39.413 0)" fill="#5c60b9"/>
          </g>
          <g id="Group_43599" data-name="Group 43599" transform="translate(14.906 0)">
            <path id="Path_78765" data-name="Path 78765" d="M157.027,6.856h0a12.636,12.636,0,0,1-3.174-.4c-1.387-.377-2.138-.951-2.295-1.754-.107-.547,0-1.439,2.143-2.875a11.264,11.264,0,0,1,3.784-1.7A6.4,6.4,0,0,1,158.7,0a3.06,3.06,0,0,1,3.253,2.668,3.16,3.16,0,0,1-.441,2.517A4.125,4.125,0,0,1,158.769,6.7,9.186,9.186,0,0,1,157.027,6.856Zm-2.683-2.719a.064.064,0,0,0,0,.12,10.1,10.1,0,0,0,2.683.349,7.042,7.042,0,0,0,1.312-.11,2.218,2.218,0,0,0,1.338-.607c.044-.062.177-.25.071-.789-.129-.659-.363-.85-1.046-.85a4.169,4.169,0,0,0-.786.086A9.367,9.367,0,0,0,154.343,4.137Z" transform="translate(-151.53 -0.001)" fill="#5c60b9"/>
          </g>
        </g>
      </g>
    </g>
  </g>
</svg>
