<svg xmlns="http://www.w3.org/2000/svg" width="24" height="24" viewBox="0 0 24 24">
  <g id="Group_43653" data-name="Group 43653" transform="translate(-20 -593)">
    <rect id="Rectangle_8405" data-name="Rectangle 8405" width="24" height="24" transform="translate(20 593)" fill="none"/>
    <g id="svgexport-6_21_" data-name="svgexport-6 (21)" transform="translate(20 593)">
      <g id="Group_43686" data-name="Group 43686">
        <g id="Group_43685" data-name="Group 43685">
          <path id="Path_78817" data-name="Path 78817" d="M12,0A12,12,0,1,0,24,12,11.993,11.993,0,0,0,12,0Zm-.355,17.617a1.216,1.216,0,0,1,0-2.433,1.216,1.216,0,0,1,0,2.433Zm1.8-6.145a1.984,1.984,0,0,0-.885,1.974c0,.3-.158.648-.932.648-.648,0-.869-.237-.869-1.058a2.891,2.891,0,0,1,1.058-2.4c.521-.442,1.406-.932,1.406-1.785,0-.727-.632-1.074-1.422-1.074-1.611,0-1.264,1.216-2.117,1.216a.906.906,0,0,1-.948-.9c0-.853.979-2.117,3.112-2.117,2.022,0,3.364,1.122,3.364,2.606A4.043,4.043,0,0,1,13.446,11.472Z" fill="#5c60b9"/>
        </g>
      </g>
    </g>
  </g>
</svg>
