<svg xmlns="http://www.w3.org/2000/svg" width="36" height="33.001" viewBox="0 0 36 33.001">
  <g id="svgexport-10_6_" data-name="svgexport-10 (6)" transform="translate(0 -0.492)">
    <path id="Path_78824" data-name="Path 78824" d="M9.374,164.228A5.616,5.616,0,0,1,4.061,160.4l-.052-.172a5.475,5.475,0,0,1-.26-1.626V148.375L.11,160.522A3.407,3.407,0,0,0,2.5,164.655l23.2,6.212a3.442,3.442,0,0,0,.864.111,3.345,3.345,0,0,0,3.242-2.453l1.351-4.3Zm0,0" transform="translate(0 -137.485)" fill="#b95cb9"/>
    <path id="Path_78825" data-name="Path 78825" d="M152.32,70.492a3,3,0,1,0-3-3A3,3,0,0,0,152.32,70.492Zm0,0" transform="translate(-138.821 -59.5)" fill="#b95cb9"/>
    <path id="Path_78826" data-name="Path 78826" d="M111.571.492H89.07a3.755,3.755,0,0,0-3.75,3.75v16.5a3.755,3.755,0,0,0,3.75,3.75h22.5a3.756,3.756,0,0,0,3.75-3.75V4.242a3.756,3.756,0,0,0-3.75-3.75Zm-22.5,3h22.5a.75.75,0,0,1,.75.75V14.891l-4.739-5.529a2.687,2.687,0,0,0-2.012-.922,2.622,2.622,0,0,0-2,.946L98,16.073,96.18,14.262a2.633,2.633,0,0,0-3.72,0L88.32,18.4V4.242A.75.75,0,0,1,89.07,3.492Zm0,0" transform="translate(-79.321 0)" fill="#b95cb9"/>
  </g>
</svg>
