<svg id="Component_16_21" data-name="Component 16 – 21" xmlns="http://www.w3.org/2000/svg" width="24" height="24" viewBox="0 0 24 24">
  <g id="svgexport-6_28_" data-name="svgexport-6 (28)">
    <path id="Path_78858" data-name="Path 78858" d="M22.145,10.816H17.52l1.045-4.687A3.079,3.079,0,0,0,17.4,3l-.72-.537a2.3,2.3,0,0,0-3.367.686,56.958,56.958,0,0,1-4.848,7.371.861.861,0,0,0-.775-.491H2.92a.859.859,0,0,0-.861.857V24.35a.859.859,0,0,0,.861.857H7.694a.849.849,0,0,0,.838-.741A4.782,4.782,0,0,0,12.026,26h4.726A4.746,4.746,0,0,0,20.7,23.892l4.7-7.017a3.9,3.9,0,0,0-3.257-6.059ZM6.833,23.493H3.781V11.738H6.833Z" transform="translate(-2.059 -1.999)" fill="#5c60b9"/>
  </g>
</svg>
