<svg xmlns="http://www.w3.org/2000/svg" width="24" height="24" viewBox="0 0 24 24">
  <path id="Icon_material-my-location" data-name="Icon material-my-location" d="M13.5,16.136c-2.411,0-4.364-5.047-4.364-2.636a4.364,4.364,0,0,0,8.727,0C17.864,11.089,15.911,16.136,13.5,16.136Zm9.753-3.727a9.812,9.812,0,0,0-8.662-8.662V1.5H12.409V3.747a9.812,9.812,0,0,0-8.662,8.662H1.5v2.182H3.747a9.812,9.812,0,0,0,8.662,8.662V25.5h2.182V23.253a9.812,9.812,0,0,0,8.662-8.662H25.5V12.409ZM13.5,21.136A7.636,7.636,0,1,1,21.136,13.5,7.631,7.631,0,0,1,13.5,21.136Z" transform="translate(-1.5 -1.5)" fill="#898989"/>
</svg>
