<svg xmlns="http://www.w3.org/2000/svg" width="18.461" height="24" viewBox="0 0 18.461 24">
  <path id="Icon_ionic-ios-lock" data-name="Icon ionic-ios-lock" d="M22.9,11.682H21.519V8.988a5.539,5.539,0,1,0-11.077-.075v2.769H9.058A2.314,2.314,0,0,0,6.75,13.99V25.067a2.314,2.314,0,0,0,2.308,2.308H22.9a2.314,2.314,0,0,0,2.308-2.308V13.99A2.314,2.314,0,0,0,22.9,11.682Zm-6.115,7.2v3.969a.827.827,0,0,1-.767.831.809.809,0,0,1-.848-.808V18.882a1.846,1.846,0,1,1,1.615,0Zm3.115-7.2H12.058V8.913a3.923,3.923,0,0,1,7.846,0Z" transform="translate(-6.75 -3.374)" fill="#898989"/>
</svg>
