<svg xmlns="http://www.w3.org/2000/svg" width="24" height="24" viewBox="0 0 24 24">
  <g id="Group_43653" data-name="Group 43653" transform="translate(-20 -593)">
    <rect id="Rectangle_8405" data-name="Rectangle 8405" width="24" height="24" transform="translate(20 593)" fill="none"/>
    <g id="svgexport-10_3_" data-name="svgexport-10 (3)" transform="translate(-6.45 593)">
      <path id="Path_78818" data-name="Path 78818" d="M43.578,13.938a.75.75,0,0,0-.75.75v2.927A1.026,1.026,0,0,1,41.8,18.64H37.871V6.925a2.468,2.468,0,0,0-1.263-2.187L31,1.5H41.8a1.026,1.026,0,0,1,1.025,1.025V5.864a.75.75,0,0,0,1.5,0V2.525A2.528,2.528,0,0,0,41.8,0H29.975A2.528,2.528,0,0,0,27.45,2.525v15.84a2.468,2.468,0,0,0,1.263,2.187l5.37,3.1a2.468,2.468,0,0,0,2.525,0,2.468,2.468,0,0,0,1.263-2.187V20.14H41.8a2.528,2.528,0,0,0,2.525-2.525V14.688a.75.75,0,0,0-.75-.75ZM48.655,10.6l-2.437,2.437a.75.75,0,0,1-1.06-1.061l1.157-1.157h-6.89a.75.75,0,1,1,0-1.5h6.89L45.157,8.163A.75.75,0,0,1,46.218,7.1L48.655,9.54a.75.75,0,0,1,0,1.061Z" fill="#5c60b9"/>
    </g>
  </g>
</svg>
