<svg xmlns="http://www.w3.org/2000/svg" width="23" height="24" viewBox="0 0 23 24">
  <g id="discount" transform="translate(-10.359 0.002)">
    <g id="Group_42457" data-name="Group 42457" transform="translate(10.359 -0.002)">
      <g id="Group_42456" data-name="Group 42456" transform="translate(0 0)">
        <path id="Path_78140" data-name="Path 78140" d="M32.25,12.309a.7.7,0,0,1,0-.622l.894-1.831a2.085,2.085,0,0,0-.9-2.767l-1.8-.955a.7.7,0,0,1-.365-.5l-.352-2.008a2.081,2.081,0,0,0-2.351-1.71L25.365,2.2a.7.7,0,0,1-.59-.192L23.312.59a2.079,2.079,0,0,0-2.905,0L18.943,2.007a.7.7,0,0,1-.59.192l-2.016-.285a2.081,2.081,0,0,0-2.351,1.71l-.352,2.007a.7.7,0,0,1-.365.5l-1.8.955a2.085,2.085,0,0,0-.9,2.767l.894,1.831a.7.7,0,0,1,0,.622l-.894,1.831a2.085,2.085,0,0,0,.9,2.767l1.8.955a.7.7,0,0,1,.365.5l.352,2.008A2.08,2.08,0,0,0,16.038,22.1a2.135,2.135,0,0,0,.3-.021l2.016-.285a.7.7,0,0,1,.59.192l1.463,1.417a2.079,2.079,0,0,0,2.905,0l1.463-1.417a.7.7,0,0,1,.59-.192l2.016.285a2.081,2.081,0,0,0,2.351-1.71l.352-2.007a.7.7,0,0,1,.365-.5l1.8-.955a2.085,2.085,0,0,0,.9-2.767ZM31.6,15.684l-1.8.955a2.079,2.079,0,0,0-1.079,1.487l-.352,2.008a.7.7,0,0,1-.8.579l-2.016-.285a2.074,2.074,0,0,0-1.745.568L22.35,22.411a.7.7,0,0,1-.983,0L19.9,20.994a2.073,2.073,0,0,0-1.448-.589,2.119,2.119,0,0,0-.3.021l-2.016.285a.7.7,0,0,1-.8-.579L15,18.126a2.078,2.078,0,0,0-1.079-1.486l-1.8-.955a.705.705,0,0,1-.3-.936l.894-1.831a2.081,2.081,0,0,0,0-1.837l-.894-1.831a.705.705,0,0,1,.3-.936l1.8-.955A2.079,2.079,0,0,0,15,5.87l.352-2.008a.7.7,0,0,1,.8-.579l2.016.285A2.074,2.074,0,0,0,19.9,3l1.463-1.417a.7.7,0,0,1,.983,0L23.813,3a2.074,2.074,0,0,0,1.745.568l2.016-.285a.7.7,0,0,1,.8.579l.352,2.008A2.078,2.078,0,0,0,29.8,7.357l1.8.955a.705.705,0,0,1,.3.936l-.894,1.831a2.081,2.081,0,0,0,0,1.837l.894,1.831A.705.705,0,0,1,31.6,15.684Z" transform="translate(-10.359 0.002)" fill="#5c60b9"/>
      </g>
    </g>
    <g id="Group_42459" data-name="Group 42459" transform="translate(16.599 6.738)">
      <g id="Group_42458" data-name="Group 42458">
        <path id="Path_78141" data-name="Path 78141" d="M154.108,143.994a.692.692,0,0,0-.979,0l-9.135,9.135a.692.692,0,1,0,.979.979l9.135-9.135A.692.692,0,0,0,154.108,143.994Z" transform="translate(-143.791 -143.791)" fill="#5c60b9"/>
      </g>
    </g>
    <g id="Group_42461" data-name="Group 42461" transform="translate(16.557 5.769)">
      <g id="Group_42460" data-name="Group 42460" transform="translate(0)">
        <path id="Path_78142" data-name="Path 78142" d="M145.34,123.116a2.538,2.538,0,1,0,2.538,2.538A2.541,2.541,0,0,0,145.34,123.116Zm0,3.691a1.154,1.154,0,1,1,1.154-1.154A1.155,1.155,0,0,1,145.34,126.807Z" transform="translate(-142.802 -123.116)" fill="#5c60b9"/>
      </g>
    </g>
    <g id="Group_42463" data-name="Group 42463" transform="translate(22.085 13.152)">
      <g id="Group_42462" data-name="Group 42462" transform="translate(0)">
        <path id="Path_78143" data-name="Path 78143" d="M263.46,280.61A2.538,2.538,0,1,0,266,283.148,2.541,2.541,0,0,0,263.46,280.61Zm0,3.691a1.153,1.153,0,1,1,1.153-1.153A1.155,1.155,0,0,1,263.46,284.3Z" transform="translate(-260.922 -280.61)" fill="#5c60b9"/>
      </g>
    </g>
  </g>
</svg>
