<svg xmlns="http://www.w3.org/2000/svg" width="24" height="24.002" viewBox="0 0 24 24.002">
  <g id="svgexport-6_8_" data-name="svgexport-6 (8)" transform="translate(-0.021)">
    <g id="Group_43593" data-name="Group 43593" transform="translate(0.021 0)">
      <g id="Group_43591" data-name="Group 43591" transform="translate(4.519 4.373)">
        <path id="Path_78751" data-name="Path 78751" d="M88.133,182.664l6.482,3.129.006-6.666-6.488-3.574Z" transform="translate(-88.133 -170.922)" fill="#898989"/>
        <path id="Path_78752" data-name="Path 78752" d="M252.077,179.078l0,6.667,6.516-3.132V175.5Z" transform="translate(-243.666 -170.872)" fill="#898989"/>
        <path id="Path_78753" data-name="Path 78753" d="M110.154,88.3l6.317,3.478L122.81,88.3l-6.339-3.043Z" transform="translate(-109.025 -85.256)" fill="#898989"/>
      </g>
      <g id="Group_43592" data-name="Group 43592" transform="translate(0 0)">
        <path id="Path_78754" data-name="Path 78754" d="M12,1.545a10.437,10.437,0,0,1,6.335,2.147h-.922V5.334h2.956a.825.825,0,0,0,.82-.9l-.3-2.98-1.64.159.09.9A11.984,11.984,0,0,0,12,0,12.1,12.1,0,0,0,.021,11.994,11.894,11.894,0,0,0,1.216,17.22l1.391-.674A10.456,10.456,0,0,1,12,1.545Z" transform="translate(-0.021 0)" fill="#898989"/>
        <path id="Path_78755" data-name="Path 78755" d="M75.146,132.231l-1.391.674a10.438,10.438,0,0,1-15.729,12.854h.935v-1.641H55.993a.824.824,0,0,0-.82.895l.3,2.979,1.64-.155-.089-.9a11.989,11.989,0,0,0,18.127-14.7Z" transform="translate(-52.34 -125.449)" fill="#898989"/>
      </g>
    </g>
  </g>
</svg>
