<svg xmlns="http://www.w3.org/2000/svg" width="13.591" height="24" viewBox="0 0 13.591 24">
  <g id="svgexport-6_1_" data-name="svgexport-6 (1)" transform="translate(-5.951)">
    <g id="Group_16" data-name="Group 16" transform="translate(5.951)">
      <path id="Path_901" data-name="Path 901" d="M17.8,0H7.7A1.747,1.747,0,0,0,5.951,1.748V22.253A1.746,1.746,0,0,0,7.7,24H17.8a1.747,1.747,0,0,0,1.747-1.747V1.748A1.748,1.748,0,0,0,17.8,0ZM10.255,1.062H15.24c.126,0,.228.188.228.421s-.1.422-.228.422H10.255c-.127,0-.227-.189-.227-.422S10.128,1.062,10.255,1.062Zm2.493,21.213a1.115,1.115,0,1,1,1.113-1.116A1.117,1.117,0,0,1,12.747,22.274Zm5.486-3.821H7.26V2.95H18.233v15.5Z" transform="translate(-5.951)" fill="#898989"/>
    </g>
  </g>
</svg>
