<svg xmlns="http://www.w3.org/2000/svg" width="36" height="36" viewBox="0 0 36 36">
  <g id="svgexport-10_7_" data-name="svgexport-10 (7)" transform="translate(0)">
    <g id="Group_43702" data-name="Group 43702" transform="translate(0)">
      <path id="Path_78827" data-name="Path 78827" d="M33.375,169.333H2.625A2.638,2.638,0,0,0,0,171.958v18.75a2.638,2.638,0,0,0,2.625,2.625h30.75A2.638,2.638,0,0,0,36,190.708v-18.75A2.638,2.638,0,0,0,33.375,169.333ZM31.5,176.458v9.75a2.628,2.628,0,0,1-2.625,2.625h-8.25A2.628,2.628,0,0,1,18,186.208v-9.75a2.628,2.628,0,0,1,2.625-2.625h8.25A2.628,2.628,0,0,1,31.5,176.458Zm-17.625,5.625H5.625a1.125,1.125,0,0,1,0-2.25h8.25a1.125,1.125,0,0,1,0,2.25ZM15,185.458a1.133,1.133,0,0,1-1.125,1.125H5.625a1.125,1.125,0,1,1,0-2.25h8.25A1.133,1.133,0,0,1,15,185.458Zm-1.125-7.875H5.625a1.125,1.125,0,0,1,0-2.25h8.25a1.125,1.125,0,0,1,0,2.25Z" transform="translate(0 -157.333)" fill="#b9915c"/>
      <path id="Path_78828" data-name="Path 78828" d="M33.375,0H2.625A2.628,2.628,0,0,0,0,2.625v3.75A2.628,2.628,0,0,0,2.625,9h30.75A2.628,2.628,0,0,0,36,6.375V2.625A2.628,2.628,0,0,0,33.375,0Z" transform="translate(0)" fill="#b9915c"/>
    </g>
  </g>
</svg>
