<svg xmlns="http://www.w3.org/2000/svg" width="24" height="24" viewBox="0 0 24 24">
  <g id="Group_43653" data-name="Group 43653" transform="translate(-20 -593)">
    <rect id="Rectangle_8405" data-name="Rectangle 8405" width="24" height="24" transform="translate(20 593)" fill="none"/>
    <g id="svgexport-6_20_" data-name="svgexport-6 (20)" transform="translate(-11.908 593)">
      <g id="Group_43684" data-name="Group 43684" transform="translate(33.908 0)">
        <g id="Group_43683" data-name="Group 43683">
          <path id="Path_78816" data-name="Path 78816" d="M54.081,6.178c-.029-.631-.029-1.234-.029-1.837a.846.846,0,0,0-.861-.861A11.532,11.532,0,0,1,44.61.237a.885.885,0,0,0-1.205,0A11.532,11.532,0,0,1,34.823,3.48a.846.846,0,0,0-.861.861c0,.6,0,1.205-.029,1.837-.115,6.027-.287,14.292,9.787,17.765l.287.057.287-.057C54.339,20.47,54.2,12.233,54.081,6.178ZM43.319,14.529a.926.926,0,0,1-.6.23h-.029a.808.808,0,0,1-.6-.287l-2.669-2.956,1.291-1.148,2.1,2.325,4.649-4.42,1.177,1.263Z" transform="translate(-33.908 0)" fill="#5c60b9"/>
        </g>
      </g>
    </g>
  </g>
</svg>
