<svg id="Group_43695" data-name="Group 43695" xmlns="http://www.w3.org/2000/svg" width="36" height="36" viewBox="0 0 36 36">
  <path id="Path_78822" data-name="Path 78822" d="M36.276,18.407l-7.747-2.572V3.868a1.055,1.055,0,0,0-.724-1L19.335.055a1.064,1.064,0,0,0-.67,0L10.195,2.868a1.055,1.055,0,0,0-.724,1V15.835L1.724,18.407a1.055,1.055,0,0,0-.724,1V32.134a1.055,1.055,0,0,0,.724,1l8.471,2.813a1.063,1.063,0,0,0,.67,0L19,33.246l8.136,2.7a1.062,1.062,0,0,0,.67,0l8.471-2.813a1.055,1.055,0,0,0,.724-1V19.407A1.055,1.055,0,0,0,36.276,18.407Zm-8.805,2.7-5.122-1.7,5.122-1.7,5.122,1.7Zm-16.941-3.4,5.122,1.7-5.122,1.7-5.122-1.7Zm15.882-1.872-6.353,2.109V7.441l6.353-2.109ZM19,2.168l5.122,1.7L19,5.569l-5.122-1.7ZM3.118,20.871,9.471,22.98v10.5L3.118,31.374Zm16.941,0,6.353,2.109v10.5l-6.353-2.109Z" transform="translate(-1 -0.001)" fill="#5c60b9"/>
</svg>
