<svg xmlns="http://www.w3.org/2000/svg" width="36" height="36" viewBox="0 0 36 36">
  <g id="Group_42830" data-name="Group 42830" transform="translate(-3 -764)">
    <circle id="Ellipse_1254" data-name="Ellipse 1254" cx="18" cy="18" r="18" transform="translate(3 764)" fill="#f2f3fd"/>
    <path id="Icon_awesome-microphone" data-name="Icon awesome-microphone" d="M6.875,13.75A3.75,3.75,0,0,0,10.625,10V3.75a3.75,3.75,0,0,0-7.5,0V10A3.75,3.75,0,0,0,6.875,13.75Zm6.25-6.25H12.5a.625.625,0,0,0-.625.625V10a5.006,5.006,0,0,1-5.5,4.976,5.152,5.152,0,0,1-4.5-5.2V8.125A.625.625,0,0,0,1.25,7.5H.625A.625.625,0,0,0,0,8.125V9.694a7.09,7.09,0,0,0,5.938,7.1v1.334H3.75a.625.625,0,0,0-.625.625v.625A.625.625,0,0,0,3.75,20H10a.625.625,0,0,0,.625-.625V18.75A.625.625,0,0,0,10,18.125H7.813V16.806A6.882,6.882,0,0,0,13.75,10V8.125A.625.625,0,0,0,13.125,7.5Z" transform="translate(14 772)" fill="#5c60b9"/>
  </g>
</svg>
