<svg xmlns="http://www.w3.org/2000/svg" width="22.962" height="24" viewBox="0 0 22.962 24">
  <g id="svgexport-6_18_" data-name="svgexport-6 (18)" transform="translate(-11.074 0)">
    <g id="Group_43669" data-name="Group 43669" transform="translate(11.074 0)">
      <path id="Path_78808" data-name="Path 78808" d="M149.163,119.911a.679.679,0,0,0,.831-.184l5.428-6.785a.679.679,0,0,0-.315-1.067l-3.475-1.159,1.2-4.863a.678.678,0,0,0-1.188-.588l-5.428,6.83a.679.679,0,0,0,.315,1.067l3.475,1.159-1.2,4.818A.678.678,0,0,0,149.163,119.911Z" transform="translate(-139.577 -99.419)" fill="#444"/>
      <path id="Path_78809" data-name="Path 78809" d="M325.522,56.269l-.719-.441a10.78,10.78,0,0,0,.614-3.562A10.917,10.917,0,0,0,317.933,41.9c0,.047.019.092.019.14a2.014,2.014,0,0,1-.385,1.17,9.558,9.558,0,0,1,6.491,9.052,9.44,9.44,0,0,1-.45,2.873l-.392-.226a.678.678,0,0,0-1.016.547l-.182,3.029a.678.678,0,0,0,1.051.606l2.487-1.672a.678.678,0,0,0-.035-1.154Z" transform="translate(-302.899 -40.008)" fill="#444"/>
      <path id="Path_78810" data-name="Path 78810" d="M42.684,346.381a9.338,9.338,0,0,1-13.295-.7l.381-.22a.678.678,0,0,0,.034-1.154l-2.532-1.672a.678.678,0,0,0-1.051.606l.182,3.029a.678.678,0,0,0,1.016.547l.774-.447a10.812,10.812,0,0,0,8.2,3.817,10.94,10.94,0,0,0,7.224-2.829c-.033-.017-.07-.023-.1-.042A2.025,2.025,0,0,1,42.684,346.381Z" transform="translate(-25.536 -326.184)" fill="#444"/>
      <path id="Path_78811" data-name="Path 78811" d="M12.622,14.162A9.554,9.554,0,0,1,19.894,2.937v.455A.679.679,0,0,0,20.876,4L23.59,2.641a.679.679,0,0,0,0-1.214L20.876.071a.679.679,0,0,0-.982.607v.881a10.89,10.89,0,0,0-8.586,12.935c.04-.027.07-.063.112-.087a1.857,1.857,0,0,1,1.2-.245Z" transform="translate(-11.074 0)" fill="#444"/>
    </g>
  </g>
</svg>
