<svg xmlns="http://www.w3.org/2000/svg" width="24" height="24" viewBox="0 0 24 24">
  <g id="svgexport-7" transform="translate(0)">
    <path id="Path_78839" data-name="Path 78839" d="M21.414,0H2.586A2.589,2.589,0,0,0,0,2.586V21.414A2.589,2.589,0,0,0,2.586,24H21.414A2.589,2.589,0,0,0,24,21.414V2.586A2.589,2.589,0,0,0,21.414,0ZM9.615,1.406h4.694V4.845a1.181,1.181,0,0,1-1.18,1.18H10.795a1.181,1.181,0,0,1-1.18-1.18ZM22.594,21.414a1.181,1.181,0,0,1-1.18,1.18H2.586a1.181,1.181,0,0,1-1.18-1.18V2.586a1.181,1.181,0,0,1,1.18-1.18H8.209V4.845a2.589,2.589,0,0,0,2.586,2.586H13.13a2.589,2.589,0,0,0,2.586-2.586V1.406h5.7a1.181,1.181,0,0,1,1.18,1.18Zm0,0" fill="#5c60b9"/>
    <path id="Path_78840" data-name="Path 78840" d="M167.392,220.408h-4.327l.93-.93a.7.7,0,0,0-.994-.994l-2.13,2.13a.7.7,0,0,0,0,.994l2.13,2.13a.7.7,0,0,0,.994-.994l-.93-.93h4.328a2.309,2.309,0,1,1,0,4.619h-6.025a.7.7,0,1,0,0,1.406h6.025a3.716,3.716,0,1,0,0-7.431Zm0,0" transform="translate(-153.133 -208.046)" fill="#5c60b9"/>
  </g>
</svg>
