<svg xmlns="http://www.w3.org/2000/svg" width="16.766" height="20" viewBox="0 0 16.766 20">
  <g id="svgexport-10_10_" data-name="svgexport-10 (10)" transform="translate(-2.587)">
    <g id="Group_43764" data-name="Group 43764" transform="translate(2.587)">
      <g id="money_7">
        <g id="Group_43763" data-name="Group 43763">
          <path id="Path_78852" data-name="Path 78852" d="M9.217,13.259a6.553,6.553,0,0,0,2.438-.471l-.435-1.074a5.407,5.407,0,0,1-2,.389,5.495,5.495,0,1,1,4-1.754c-.068.074-.139.146-.212.217l1.245.366c.065-.077.132-.155.194-.236a6.626,6.626,0,1,0-5.23,2.563Z" transform="translate(-2.587)" fill="#f1d723"/>
          <path id="Path_78853" data-name="Path 78853" d="M12.408,11.906v-.487a2.052,2.052,0,0,0,.644-.146,1.722,1.722,0,0,0,.514-.325,1.477,1.477,0,0,0,.339-.467,1.357,1.357,0,0,0,.123-.575,2.007,2.007,0,0,0-.058-.421,1.352,1.352,0,0,0-.266-.526,2.1,2.1,0,0,0-.607-.494,3.1,3.1,0,0,0-1.069-.327c-.721-.109-1.081-.329-1.081-.665a.442.442,0,0,1,.173-.331.723.723,0,0,1,.5-.155,1.789,1.789,0,0,1,.391.038,1.39,1.39,0,0,1,.3.112,1.271,1.271,0,0,1,.262.187,3.559,3.559,0,0,1,.254.257h1.09V5.959H12.838v.232a1.846,1.846,0,0,0-.432-.184V5.42H11.326v.509a1.873,1.873,0,0,0-.584.182,1.735,1.735,0,0,0-.462.339,1.481,1.481,0,0,0-.3.467,1.422,1.422,0,0,0-.109.555,1.91,1.91,0,0,0,.065.46,1.244,1.244,0,0,0,.279.505,2.053,2.053,0,0,0,.605.456,3.36,3.36,0,0,0,1.051.309q.185.031.374.081a1.646,1.646,0,0,1,.348.136.9.9,0,0,1,.259.2.424.424,0,0,1,.1.282.359.359,0,0,1-.194.312.909.909,0,0,1-.485.119,2.033,2.033,0,0,1-.4-.036,1.225,1.225,0,0,1-.317-.107,1.5,1.5,0,0,1-.277-.186A2.58,2.58,0,0,1,11,9.742H9.921v1.621H11v-.239c.051.026.1.051.159.073l.166.074V11.9h1.081Z" transform="translate(-5.316 -2.032)" fill="#f1d723"/>
          <path id="Path_78854" data-name="Path 78854" d="M12.741,17.5l1.176,2.521s-3.582,2.248-8.625-.8c4.623,8,10.673,5.09,10.673,5.09l1.049,2.249,3.354-7.089Z" transform="translate(-3.602 -6.56)" fill="#f1d723"/>
        </g>
      </g>
    </g>
  </g>
</svg>
