<svg xmlns="http://www.w3.org/2000/svg" width="13.75" height="20" viewBox="0 0 13.75 20">
  <path id="Icon_awesome-microphone" data-name="Icon awesome-microphone" d="M6.875,13.75A3.75,3.75,0,0,1,3.125,10V3.75a3.75,3.75,0,1,1,7.5,0V10A3.75,3.75,0,0,1,6.875,13.75ZM.625,7.5H1.25a.625.625,0,0,1,.625.625V10a5.006,5.006,0,0,0,5.5,4.976,5.152,5.152,0,0,0,4.5-5.2V8.125A.625.625,0,0,1,12.5,7.5h.625a.625.625,0,0,1,.625.625V9.694a7.09,7.09,0,0,1-5.938,7.1v1.334H10a.625.625,0,0,1,.625.625v.625A.625.625,0,0,1,10,20H3.75a.625.625,0,0,1-.625-.625V18.75a.625.625,0,0,1,.625-.625H5.938V16.806A6.882,6.882,0,0,1,0,10V8.125A.625.625,0,0,1,.625,7.5Z" fill="#5c60b9"/>
</svg>
