<svg id="Icon_ionic-ios-image" data-name="Icon ionic-ios-image" xmlns="http://www.w3.org/2000/svg" width="20" height="20" viewBox="0 0 20 20">
  <path id="Path_78210" data-name="Path 78210" d="M16.957,18.3H7.788a.268.268,0,0,1-.216-.423L12.159,10.5a.265.265,0,0,1,.438,0l4.582,7.375A.27.27,0,0,1,16.957,18.3Z" transform="translate(-0.062 -5.592)" fill="#5c60b9"/>
  <path id="Path_78211" data-name="Path 78211" d="M26.218,16.973l-1.683,2.678a.261.261,0,0,1-.216.115H21.761a.268.268,0,0,1-.216-.423l2.962-4.216a.265.265,0,0,1,.437,0l1.279,1.543A.277.277,0,0,1,26.218,16.973Z" transform="translate(-18.656 -7.055)" fill="#5c60b9"/>
  <path id="Path_78212" data-name="Path 78212" d="M23.728,10.564A1.346,1.346,0,1,1,25.2,9.088,1.351,1.351,0,0,1,23.728,10.564Z" transform="translate(-18.3 -4.799)" fill="#5c60b9"/>
  <path id="Path_78213" data-name="Path 78213" d="M4.913,3.375H21.837a1.537,1.537,0,0,1,1.538,1.538V21.837a1.537,1.537,0,0,1-1.538,1.538H4.913a1.537,1.537,0,0,1-1.538-1.538V4.913A1.537,1.537,0,0,1,4.913,3.375Zm.13,13.462a.386.386,0,0,0,.385.385H21.322a.386.386,0,0,0,.385-.385V5.428a.386.386,0,0,0-.385-.385H5.423a.386.386,0,0,0-.385.385V16.837Z" transform="translate(-3.375 -3.375)" fill="#5c60b9"/>
</svg>
