<svg xmlns="http://www.w3.org/2000/svg" width="23" height="24" viewBox="0 0 23 24">
  <g id="svgexport-6_19_" data-name="svgexport-6 (19)" transform="translate(-7.873)">
    <path id="Path_78815" data-name="Path 78815" d="M30.2,13.908l-.987-.822a1.416,1.416,0,0,1,0-2.171l.987-.822a1.884,1.884,0,0,0,.427-2.385L28.674,4.293a1.838,1.838,0,0,0-2.256-.818l-1.2.454a1.389,1.389,0,0,1-1.859-1.086l-.21-1.276A1.854,1.854,0,0,0,21.322,0h-3.9A1.854,1.854,0,0,0,15.6,1.567l-.21,1.276a1.389,1.389,0,0,1-1.859,1.086l-1.2-.454a1.839,1.839,0,0,0-2.256.818L8.123,7.707a1.884,1.884,0,0,0,.427,2.385l.987.822a1.416,1.416,0,0,1,0,2.171l-.987.822a1.884,1.884,0,0,0-.427,2.385l1.949,3.415a1.838,1.838,0,0,0,2.256.818l1.2-.454a1.389,1.389,0,0,1,1.859,1.086l.21,1.276A1.854,1.854,0,0,0,17.424,24h3.9a1.854,1.854,0,0,0,1.829-1.567l.21-1.276a1.389,1.389,0,0,1,1.859-1.086l1.2.454a1.838,1.838,0,0,0,2.256-.818l1.949-3.415a1.884,1.884,0,0,0-.427-2.385ZM27.068,18.77l-1.2-.454a3.242,3.242,0,0,0-4.338,2.533l-.21,1.276h-3.9l-.21-1.276a3.242,3.242,0,0,0-4.338-2.533l-1.2.454L9.729,15.355l.987-.822a3.305,3.305,0,0,0,0-5.067l-.987-.822L11.678,5.23l1.2.454a3.242,3.242,0,0,0,4.338-2.533l.21-1.276h3.9l.21,1.276a3.242,3.242,0,0,0,4.338,2.533l1.2-.454,1.95,3.414h0l-.987.822a3.305,3.305,0,0,0,0,5.067l.987.822Zm-7.7-11.395A4.625,4.625,0,1,0,23.946,12,4.6,4.6,0,0,0,19.373,7.375Z" fill="#5c60b9"/>
  </g>
</svg>
