<svg xmlns="http://www.w3.org/2000/svg" width="24" height="24" viewBox="0 0 24 24">
  <g id="svgexport-6" transform="translate(-0.001 0.001)">
    <g id="Group_43840" data-name="Group 43840" transform="translate(0.001 -0.001)">
      <g id="Group_43839" data-name="Group 43839" transform="translate(0 0)">
        <g id="Group_43838" data-name="Group 43838">
          <path id="Path_78871" data-name="Path 78871" d="M22.33,13.381A1.612,1.612,0,0,0,20.8,14.5,8.972,8.972,0,1,1,9.46,3.217a1.688,1.688,0,0,0,1.16-1.6A1.615,1.615,0,0,0,8.51.077,12.254,12.254,0,1,0,23.9,15.55a1.655,1.655,0,0,0-1.572-2.169Z" transform="translate(-0.001 0.001)" fill="#898989"/>
          <path id="Path_78872" data-name="Path 78872" d="M330.587,3.328a9.006,9.006,0,0,1,5.771,5.757,1.646,1.646,0,0,0,1.566,1.135h.034a1.61,1.61,0,0,0,1.533-2.1A12.291,12.291,0,0,0,331.6.209a1.628,1.628,0,0,0-2.13,1.548v.036A1.614,1.614,0,0,0,330.587,3.328Z" transform="translate(-315.568 -0.124)" fill="#898989"/>
        </g>
      </g>
    </g>
  </g>
</svg>
