<svg xmlns="http://www.w3.org/2000/svg" width="16.375" height="24" viewBox="0 0 16.375 24">
  <path id="Union_2" data-name="Union 2" d="M.8,24a.815.815,0,0,1-.8-.823V.823A.815.815,0,0,1,.8,0H15.571a.815.815,0,0,1,.8.823V9.051a.344.344,0,1,1-.689,0v-.71h-15V23.177a.116.116,0,0,0,.115.117H1.62c-.045-.249.032-1.015.026-1.313A3.73,3.73,0,0,1,2.67,19.555a3.352,3.352,0,0,1,2.392-1h.693a.291.291,0,0,0,.288-.3v-.49H4.379a.479.479,0,0,1-.427-.265.5.5,0,0,1,.03-.511l.359-.53a2.222,2.222,0,0,0,.26-2l-.2-1.6a.37.37,0,0,1-.016-.131l-.009-.076.019-.01A3.816,3.816,0,0,1,5.622,10.29a3.64,3.64,0,0,1,2.534-.946,3.809,3.809,0,0,1,3.388,5.094,2.264,2.264,0,0,0,.251,2.024l.359.53a.5.5,0,0,1,.03.51.478.478,0,0,1-.427.265H10.093v.49a.291.291,0,0,0,.288.3h.693a3.464,3.464,0,0,1,3.417,3.5v1.24h1.08a.117.117,0,0,0,.115-.117V10.8a.344.344,0,1,1,.689,0V23.177a.815.815,0,0,1-.8.823ZM.689.823V7.635h15V.823a.117.117,0,0,0-.115-.117H.8A.116.116,0,0,0,.689.823ZM11.312,4.34A1.428,1.428,0,1,1,12.74,5.8,1.448,1.448,0,0,1,11.312,4.34Zm-4.525,0A1.428,1.428,0,1,1,8.215,5.8,1.447,1.447,0,0,1,6.788,4.34Zm-4.6,0A1.447,1.447,0,0,1,3.617,2.877a1.463,1.463,0,0,1,0,2.926A1.447,1.447,0,0,1,2.19,4.34Z" fill="#444"/>
</svg>
