<svg xmlns="http://www.w3.org/2000/svg" width="18.284" height="24" viewBox="0 0 18.284 24">
  <g id="svgexport-6_16_" data-name="svgexport-6 (16)" transform="translate(-64.359 -75.129)">
    <path id="Exclusion_3" data-name="Exclusion 3" d="M16.3,24H1.986A1.992,1.992,0,0,1,0,22.014V1.986A1.994,1.994,0,0,1,1.986,0H16.3a1.993,1.993,0,0,1,1.986,1.986V22.014A1.992,1.992,0,0,1,16.3,24ZM6.917,17.533A1.42,1.42,0,0,0,5.5,18.949V19.6a1.42,1.42,0,0,0,1.416,1.416h4.45A1.42,1.42,0,0,0,12.782,19.6v-.647a1.42,1.42,0,0,0-1.416-1.416Zm3.962-4.415a.506.506,0,0,0-.061,0,.5.5,0,0,0-.337.189L9.453,14.619a.5.5,0,0,0,.085.708l1.308,1.028a.5.5,0,1,0,.623-.794l-.406-.319a5.576,5.576,0,0,0,2.37-8.79.568.568,0,0,0-.874.725A4.442,4.442,0,0,1,11.3,13.889a.506.506,0,0,0,0-.537A.5.5,0,0,0,10.878,13.118ZM7.126,3.557a.5.5,0,0,0-.312.9l.407.319a5.573,5.573,0,0,0-2.37,8.789.567.567,0,1,0,.873-.724A4.444,4.444,0,0,1,6.978,6.13a.5.5,0,0,0,.824.579L8.83,5.4a.5.5,0,0,0-.085-.707L7.437,3.665A.506.506,0,0,0,7.126,3.557ZM8.2,10.435A.568.568,0,0,0,7.632,11a1.558,1.558,0,0,0,.951,1.449.567.567,0,0,0,1.116,0A1.558,1.558,0,0,0,10.651,11a1.537,1.537,0,0,0-1.509-1.56.428.428,0,1,1,.374-.425.567.567,0,1,0,1.135,0A1.558,1.558,0,0,0,9.7,7.568a.567.567,0,0,0-1.116,0,1.558,1.558,0,0,0-.951,1.449,1.537,1.537,0,0,0,1.509,1.56A.428.428,0,1,1,8.767,11,.568.568,0,0,0,8.2,10.435Zm3.166,9.442H6.917a.282.282,0,0,1-.281-.281v-.647a.282.282,0,0,1,.281-.281h4.45a.281.281,0,0,1,.281.281V19.6A.281.281,0,0,1,11.366,19.877Z" transform="translate(64.36 75.129)" fill="#5c60b9"/>
  </g>
</svg>
