<svg xmlns="http://www.w3.org/2000/svg" width="20" height="20" viewBox="0 0 20 20">
  <g id="svgexport-6_13_" data-name="svgexport-6 (13)" transform="translate(-2 -2)">
    <path id="Path_78767" data-name="Path 78767" d="M21,5H3A1,1,0,0,0,3,7H5V19a3,3,0,0,0,3,3h8a3,3,0,0,0,3-3V7h2a1,1,0,0,0,0-2ZM11,16a1,1,0,0,1-2,0V11a1,1,0,0,1,2,0Zm4,0a1,1,0,0,1-2,0V11a1,1,0,0,1,2,0Z" fill="#ff6c6c"/>
    <path id="Path_78768" data-name="Path 78768" d="M10,4h4a1,1,0,0,0,0-2H10a1,1,0,0,0,0,2Z" fill="#ff6c6c"/>
  </g>
</svg>
