<svg id="Component_16_12" data-name="Component 16 – 12" xmlns="http://www.w3.org/2000/svg" width="20" height="20" viewBox="0 0 20 20">
  <g id="svgexport-6_28_" data-name="svgexport-6 (28)" transform="translate(-2.059 -1.999)">
    <path id="Path_78858" data-name="Path 78858" d="M18.8,9.347H14.943l.871-3.906a2.566,2.566,0,0,0-.971-2.611l-.6-.448a1.916,1.916,0,0,0-2.806.571A47.465,47.465,0,0,1,7.4,9.1a.718.718,0,0,0-.646-.409H2.776a.716.716,0,0,0-.717.714V20.625a.716.716,0,0,0,.717.714H6.755a.708.708,0,0,0,.7-.617A3.985,3.985,0,0,0,10.365,22H14.3A3.955,3.955,0,0,0,17.6,20.243L21.512,14.4A3.248,3.248,0,0,0,18.8,9.347ZM6.037,19.911H3.494v-9.8H6.037ZM20.318,13.6,16.4,19.451a2.523,2.523,0,0,1-2.1,1.119H10.365a2.54,2.54,0,0,1-2.02-1.006l-.873-1.159V11.071C8.97,9.812,11.1,6.4,12.682,3.665A.467.467,0,0,1,13,3.438a.48.48,0,0,1,.386.086l.6.448a1.14,1.14,0,0,1,.43,1.16L13.35,9.906a.715.715,0,0,0,.7.869H18.8A1.82,1.82,0,0,1,20.32,13.6Z" transform="translate(0 0)" fill="#444"/>
  </g>
</svg>
