<svg xmlns="http://www.w3.org/2000/svg" width="24.498" height="24.498" viewBox="0 0 24.498 24.498">
  <g id="Group_43671" data-name="Group 43671" transform="translate(0.25 0.25)">
    <path id="Path_78812" data-name="Path 78812" d="M12,0A12,12,0,1,0,24,12,12.013,12.013,0,0,0,12,0Zm0,21.816A9.817,9.817,0,1,1,21.816,12,9.829,9.829,0,0,1,12,21.816Z" fill="#fafbff" stroke="#5c60b9" stroke-width="0.5"/>
    <path id="Path_78813" data-name="Path 78813" d="M98.754,60.32a1.091,1.091,0,0,0-1.543,0l-4.165,4.165a1.091,1.091,0,0,0,1.543,1.543l2.3-2.3v6.093a1.091,1.091,0,0,0,2.182,0V63.725l2.3,2.3a1.091,1.091,0,0,0,1.543-1.543Z" transform="translate(-85.984 -55.637)" fill="#fafbff" stroke="#5c60b9" stroke-width="0.5"/>
    <path id="Path_78814" data-name="Path 78814" d="M125.454,240h-4.363a1.091,1.091,0,0,0,0,2.182h4.363a1.091,1.091,0,0,0,0-2.182Z" transform="translate(-111.273 -222.547)" fill="#fafbff" stroke="#5c60b9" stroke-width="0.5"/>
  </g>
</svg>
