<svg xmlns="http://www.w3.org/2000/svg" width="36" height="34.526" viewBox="0 0 36 34.526">
  <g id="svgexport-10_5_" data-name="svgexport-10 (5)" transform="translate(0 -0.5)">
    <path id="Path_78823" data-name="Path 78823" d="M18.07,33.617H5.625A5.631,5.631,0,0,1,0,27.992V6.125A5.631,5.631,0,0,1,5.625.5h24.75A5.631,5.631,0,0,1,36,6.125V19.977a1.406,1.406,0,0,1-2.812,0V6.125a2.816,2.816,0,0,0-2.812-2.813H5.625A2.816,2.816,0,0,0,2.813,6.125V27.992A2.816,2.816,0,0,0,5.625,30.8H18.07a1.406,1.406,0,1,1,0,2.812ZM8.227,26.586A1.406,1.406,0,1,0,6.82,27.992,1.406,1.406,0,0,0,8.227,26.586Zm5.625,0a1.406,1.406,0,1,0-1.406,1.406A1.406,1.406,0,0,0,13.852,26.586Zm5.625,0a1.406,1.406,0,1,0-1.406,1.406A1.406,1.406,0,0,0,19.477,26.586ZM8.227,7.531A1.406,1.406,0,1,0,6.82,8.938,1.406,1.406,0,0,0,8.227,7.531Zm5.625,0a1.406,1.406,0,1,0-1.406,1.406A1.406,1.406,0,0,0,13.852,7.531Zm5.625,0A1.406,1.406,0,1,0,18.07,8.938,1.406,1.406,0,0,0,19.477,7.531Zm5.625,0A1.406,1.406,0,1,0,23.7,8.938,1.406,1.406,0,0,0,25.1,7.531Zm5.625,0A1.406,1.406,0,1,0,29.32,8.938,1.406,1.406,0,0,0,30.727,7.531ZM26.9,34.611l7.5-4.315a3.062,3.062,0,0,0,0-5.31L26.9,20.67a3.072,3.072,0,0,0-4.607,2.655v8.63a3.034,3.034,0,0,0,1.531,2.652,3.046,3.046,0,0,0,3.075,0Z" fill="#5cb0b9"/>
  </g>
</svg>
